<?xml version="1.0" encoding="iso-8859-1"?>
<!-- Uploaded to: SVG Repo, www.svgrepo.com, Generator: SVG Repo Mixer Tools -->
<svg height="800px" width="800px" version="1.1" id="Layer_1" xmlns="http://www.w3.org/2000/svg" xmlns:xlink="http://www.w3.org/1999/xlink" 
	 viewBox="0 0 496.2 496.2" xml:space="preserve">
<path style="fill:#EA4949;" d="M496.2,248.1C496.2,111.1,385.1,0,248.1,0S0,111.1,0,248.1s111.1,248.1,248.1,248.1
	S496.2,385.1,496.2,248.1z"/>
<g>
	<path style="fill:#0F0F0F;" d="M385.4,237.9c-2.4-32.8-16.6-63.8-40-87.1s-54.3-37.6-87.1-40c-1.4-0.1-2.8-0.2-4.3-0.2h-1v77.7
		l0.9,0.1c1.3,0.1,2.7,0.3,4.2,0.6c25.3,4.2,45.1,24.1,49.4,49.4c0.2,1.5,0.4,2.8,0.6,4.2l0.1,0.9h77.7v-1
		C385.6,240.7,385.6,239.3,385.4,237.9z M379.1,237h-65.6c-4.7-27.9-26.4-49.6-54.3-54.3v-65.6C322.5,122.4,373.8,173.7,379.1,237z"
		/>
	<path style="fill:#0F0F0F;" d="M237.9,110.8c-32.8,2.4-63.8,16.6-87.1,40c-23.4,23.4-37.6,54.3-40,87.1c-0.1,1.4-0.2,2.8-0.2,4.3v1
		h77.7l0.1-0.9c0.1-1.3,0.3-2.7,0.6-4.2c4.2-25.3,24.1-45.1,49.4-49.4c1.5-0.2,2.8-0.4,4.2-0.6l0.9-0.1v-77.7h-1
		C240.7,110.6,239.3,110.7,237.9,110.8z M237,117.1v65.6c-27.5,4.7-49.6,26.8-54.3,54.3h-65.6C122.4,173.7,173.7,122.4,237,117.1z"
		/>
	<path style="fill:#0F0F0F;" d="M237.8,195.9c-20.9,4.1-37.8,21-41.9,41.9c-0.3,1.4-0.5,2.8-0.7,4.3l-0.1,1.1h48.1v-48.1l-1.1,0.1
		C240.6,195.4,239.2,195.6,237.8,195.9z M237,202.4v34.5h-34.5C206.6,220,220,206.6,237,202.4z"/>
	<path style="fill:#0F0F0F;" d="M434.6,237h-34.4c-5.4-75.2-65.8-135.5-141-141V61.6c0-6.1-5-11.1-11.1-11.1s-11.1,5-11.1,11.1V96
		c-75.2,5.4-135.5,65.8-141,141H61.6c-6.1,0-11.1,5-11.1,11.1s5,11.1,11.1,11.1H96c5.4,75.2,65.8,135.5,141,141v34.4
		c0,6.1,5,11.1,11.1,11.1s11.1-5,11.1-11.1v-34.4c75.2-5.4,135.5-65.8,141-141h34.4c6.1,0,11.1-5,11.1-11.1S440.7,237,434.6,237z
		 M434.6,253h-40.3v1c-0.1,1.4-0.1,2.8-0.2,4.2c-5,72.5-63.4,130.9-136,135.8c-1.4,0.1-2.8,0.2-4.2,0.2h-1v40.3
		c0,2.7-2.2,4.9-4.9,4.9c-2.7,0-4.9-2.2-4.9-4.9v-40.3h-1c-1.4-0.1-2.8-0.1-4.2-0.2c-72.4-4.9-130.8-63.3-135.7-135.9
		c-0.1-1.4-0.2-2.8-0.2-4.2v-1H61.6c-2.7,0-4.9-2.2-4.9-4.9c0-2.7,2.2-4.9,4.9-4.9h40.3v-1c0.1-1.4,0.1-2.8,0.2-4.2
		c5-72.4,63.4-130.8,136-135.7c1.4-0.1,2.8-0.2,4.2-0.2h1V61.6c0-2.7,2.2-4.9,4.9-4.9s4.9,2.2,4.9,4.9v40.3h1
		c1.4,0.1,2.8,0.1,4.2,0.2c72.4,5,130.8,63.4,135.7,136c0.1,1.4,0.2,2.8,0.2,4.2v1h40.3c2.7,0,4.9,2.2,4.9,4.9
		C439.5,250.8,437.3,253,434.6,253z"/>
	<path style="fill:#0F0F0F;" d="M301,242.1c-0.2-1.4-0.4-2.9-0.7-4.3c-4.1-20.9-21-37.8-41.9-41.9c-1.4-0.3-2.8-0.5-4.3-0.7
		l-1.1-0.1v48.1h48.1L301,242.1z M293.8,237h-34.5v-34.5C276.2,206.6,289.6,220,293.8,237z"/>
	<path style="fill:#0F0F0F;" d="M238.1,307.4c-25.3-4.2-45.1-24.1-49.4-49.3c-0.2-1.5-0.4-2.8-0.6-4.2L188,253h-77.7v1
		c0.1,1.4,0.1,2.8,0.2,4.3c2.4,32.8,16.6,63.8,40,87.1c23.4,23.4,54.3,37.6,87.1,40c1.4,0.1,2.8,0.2,4.3,0.2h1v-77.7l-0.9-0.1
		C241,307.8,239.6,307.6,238.1,307.4z M237,313.5v65.6c-63.3-5.3-114.6-56.6-119.9-119.9h65.6C187.4,287.1,209.1,308.8,237,313.5z"
		/>
	<path style="fill:#0F0F0F;" d="M308,253.9c-0.1,1.3-0.3,2.7-0.6,4.2c-4.2,25.3-24.1,45.1-49.4,49.4c-1.5,0.2-2.8,0.4-4.2,0.6
		l-0.9,0.1v77.7h1c1.4-0.1,2.8-0.1,4.3-0.2c32.8-2.4,63.8-16.6,87.1-40s37.6-54.3,40-87.1c0.1-1.4,0.2-2.8,0.2-4.3v-1h-77.7
		L308,253.9z M259.2,379.1v-65.6c27.9-4.7,49.6-26.4,54.3-54.3h65.6C373.8,322.5,322.5,373.8,259.2,379.1z"/>
	<path style="fill:#0F0F0F;" d="M195.2,254.1c0.2,1.5,0.4,2.9,0.7,4.3c4.1,20.9,21,37.8,41.9,41.9c1.4,0.3,2.8,0.5,4.3,0.7l1.1,0.1
		V253h-48.1L195.2,254.1z M202.4,259.2h34.5v34.5C220,289.6,206.6,276.2,202.4,259.2z"/>
	<path style="fill:#0F0F0F;" d="M258.4,300.3c20.9-4.1,37.8-21,41.9-41.9c0.3-1.4,0.5-2.9,0.7-4.3l0.1-1.1H253v48.1l1.1-0.1
		C255.6,300.8,257,300.6,258.4,300.3z M259.2,293.8v-34.5h34.5C289.6,276.2,276.2,289.6,259.2,293.8z"/>
</g>
</svg>